<svg width="100%" height="100%" viewBox="0 0 180 235" fill="none" xmlns="http://www.w3.org/2000/svg">
<path fill-rule="evenodd" clip-rule="evenodd" d="M29.7145 87.6632C26.6858 92.4175 23.3748 102.641 21.8384 111.975C17.5118 138.274 24.0144 162.155 38.2826 172.365L43.3904 176.02L38.8765 183.906C29.6005 200.112 18.2796 214.84 7.25733 225.039C-0.50284 232.22 -1.45847 234.284 2.73653 234.812C12.6052 236.054 35.4089 212.484 49.3755 186.606L53.3246 179.288L60.1879 179.441C68.5606 179.627 82.0182 176.274 92.0797 171.495C102.457 166.565 126.673 146.096 133.995 136.063C143.901 122.491 150.153 110.534 155.499 94.9354C162.314 75.0527 167.277 45.528 166.068 32.0621C165.73 28.2938 165.64 25.0202 165.869 24.7892C166.098 24.5577 168.354 25.8611 170.882 27.6864C179.331 33.7858 181.272 31.1526 176.993 19.3944C174.311 12.0213 168.2 5.64319 161.463 3.18102C158.923 2.25251 156.416 0.971922 155.893 0.333911C154.576 -1.26883 147.225 4.66262 143.461 10.3656C140.234 15.2546 129.734 43.8366 129.628 48.0215C129.572 50.1724 130.082 51.0476 132.052 52.1869C136.139 54.5526 139.187 51.5229 142.789 41.5196C147.869 27.4045 151.154 20.0826 151.976 21.0389C154.841 24.3717 154.137 43.9547 150.468 63.0041C144.948 91.6542 135.782 113.76 121.831 132.064C114.239 142.024 96.3794 157.013 86.4587 161.75C74.9695 167.236 59.5651 170.894 58.6506 168.355C58.4924 167.914 59.9164 161.994 61.8142 155.199C71.351 121.062 67.7637 86.9293 53.7537 78.4934C51.9732 77.4209 48.4366 76.5221 45.8943 76.4961C41.6812 76.4518 40.8256 76.8418 36.2355 80.8905C33.4656 83.3335 30.5317 86.3818 29.7145 87.6632ZM45.493 82.0367C46.5006 82.0198 48.7365 82.8552 50.4614 83.8937C61.6552 90.6336 62.0754 124.805 51.3496 156.244C48.8956 163.437 47.6751 165.805 46.4665 165.714C45.5795 165.647 42.6131 163.236 39.8727 160.357C31.119 151.155 27.7754 138.914 28.6596 119.3C29.2398 106.409 30.7133 99.6447 34.6694 91.7076C37.4631 86.103 41.9449 82.0986 45.493 82.0367Z" fill="currentColor"/>
</svg>
