<svg width="22" height="20" viewBox="0 0 45 42" fill="none" xmlns="http://www.w3.org/2000/svg" trasform="scale(0.6)">
<path d="M34.0677 5.43591C33.3495 4.98748 32.599 4.58251 31.8197 4.22707C29.2966 3.07472 26.476 2.42989 23.4999 2.42989C19.2871 2.42989 15.3852 3.72216 12.1961 5.91822L7.73241 2.60457C6.20618 1.47221 3.99951 2.52375 3.99951 4.3835V21.2829C3.99951 21.9616 4.03636 22.6299 4.10917 23.2895C5.14464 32.7559 13.4275 40.1341 23.4946 40.1367C34.2133 40.1402 42.9815 31.6792 42.9995 21.3159C43.0076 16.6891 41.2926 12.4499 38.4396 9.16496" stroke="currentColor" stroke-width="2.5" stroke-linecap="round" stroke-linejoin="bevel"/>
<path d="M24.0381 19.4939L20.9164 22.4399L17.3071 19.0346C16.5861 18.3543 15.6399 18.0128 14.6946 18.0128C13.7493 18.0128 12.8022 18.3534 12.0813 19.0346C10.7723 20.2699 10.6511 22.2034 11.7185 23.5675C11.8271 23.7067 11.9474 23.839 12.0813 23.9645L19.5107 30.9756C20.7816 31.3537 22.2262 31.066 23.233 30.1159L25.9694 27.5336L34.9167 19.0901C35.6377 18.4097 35.9995 17.516 35.9995 16.6239C35.9995 15.7318 35.6386 14.8389 34.9167 14.1585C33.4739 12.7961 31.1346 12.7961 29.6909 14.1585L27.0332 16.6666L24.039 19.4922L24.0381 19.4939Z" stroke="currentColor" stroke-width="2.5" stroke-linecap="round" stroke-linejoin="round"/>
</svg>
