<svg width="20" height="20" viewBox="0 0 20 20" fill="none" xmlns="http://www.w3.org/2000/svg">
<g clip-path="url(#clip0_2517_101)">
<path opacity="0.2" d="M15.9259 9.25926L10.7407 4.07408L13.1759 1.63889C13.2448 1.5689 13.327 1.51332 13.4176 1.47538C13.5082 1.43745 13.6055 1.41791 13.7037 1.41791C13.8019 1.41791 13.8992 1.43745 13.9898 1.47538C14.0804 1.51332 14.1625 1.5689 14.2315 1.63889L18.3611 5.76852C18.4311 5.83745 18.4867 5.9196 18.5246 6.01021C18.5625 6.10082 18.5821 6.19807 18.5821 6.2963C18.5821 6.39453 18.5625 6.49178 18.5246 6.58239C18.4867 6.67299 18.4311 6.75515 18.3611 6.82408L15.9259 9.25926Z" fill="#557BDD"/>
<path d="M6.7315 18.1482H2.59261C2.39616 18.1482 2.20775 18.0701 2.06883 17.9312C1.92991 17.7923 1.85187 17.6039 1.85187 17.4074V13.2685C1.85153 13.1723 1.87017 13.077 1.90671 12.9881C1.94326 12.8991 1.99699 12.8182 2.06484 12.75L13.1759 1.63889C13.2449 1.5689 13.327 1.51332 13.4176 1.47538C13.5082 1.43745 13.6055 1.41791 13.7037 1.41791C13.802 1.41791 13.8992 1.43745 13.9898 1.47538C14.0804 1.51332 14.1626 1.5689 14.2315 1.63889L18.3611 5.76852C18.4311 5.83745 18.4867 5.9196 18.5246 6.01021C18.5626 6.10082 18.5821 6.19807 18.5821 6.2963C18.5821 6.39453 18.5626 6.49178 18.5246 6.58239C18.4867 6.67299 18.4311 6.75515 18.3611 6.82408L7.25002 17.9352C7.18184 18.003 7.10094 18.0568 7.01197 18.0933C6.92299 18.1299 6.82769 18.1485 6.7315 18.1482V18.1482Z" stroke="#557BDD" stroke-width="1.5" stroke-linecap="round" stroke-linejoin="round"/>
<path d="M10.7407 4.07407L15.9259 9.25926" stroke="#557BDD" stroke-width="1.5" stroke-linecap="round" stroke-linejoin="round"/>
<path d="M13.3333 6.66667L4.44446 15.5556" stroke="#557BDD" stroke-width="1.5" stroke-linecap="round" stroke-linejoin="round"/>
<path d="M6.99073 18.1019L1.89813 13.0093" stroke="#557BDD" stroke-width="1.5" stroke-linecap="round" stroke-linejoin="round"/>
</g>
<defs>
<clipPath id="clip0_2517_101">
<rect width="20" height="20" fill="white"/>
</clipPath>
</defs>
</svg>
