<svg width="100%" height="100%" viewBox="0 0 25 25" fill="none" xmlns="http://www.w3.org/2000/svg">
<g clip-path="url(#clip0_727_33151)">
<path d="M12.3955 24.9872C19.1778 24.9872 24.6952 19.4697 24.6952 12.6875C24.6952 5.90516 19.1778 0.387695 12.3955 0.387695C5.61317 0.387695 0.0957031 5.90516 0.0957031 12.6875C0.0957031 19.4697 5.61317 24.9872 12.3955 24.9872ZM12.3955 1.92517C18.3301 1.92517 23.1578 6.75282 23.1578 12.6875C23.1578 18.6221 18.3301 23.4497 12.3955 23.4497C6.46083 23.4497 1.63317 18.6221 1.63317 12.6875C1.63317 6.75282 6.46083 1.92517 12.3955 1.92517Z" fill="currentColor"/>
<path d="M8.19661 14.8962L9.80378 14.1982L9.35279 14.6502C9.20826 14.7947 9.12729 14.9905 9.12729 15.1935V18.2018C9.12729 18.8906 9.95957 19.2247 10.4393 18.745L12.0526 17.1317L15.5683 18.8895C16.0234 19.1171 16.5738 18.8475 16.6681 18.3391L18.674 7.30931C18.7795 6.71585 18.1953 6.23616 17.6367 6.4555L4.60303 11.5568C4.01879 11.7844 3.94089 12.5839 4.46978 12.9211L7.47707 14.8398C7.69232 14.9772 7.96394 14.9987 8.19661 14.8962ZM16.9151 8.39067L15.3397 17.0569L12.2443 15.5102C11.945 15.3605 11.5883 15.4231 11.3576 15.6547L10.6648 16.3476V15.5143L13.7469 12.4322C14.3444 11.8346 13.6721 10.8486 12.8972 11.1837L7.95984 13.3259L6.57201 12.4404L16.9151 8.39067Z" fill="currentColor"/>
</g>
<defs>
<clipPath id="clip0_727_33151">
<rect width="24.5995" height="24.5995" fill="currentColor" transform="translate(0.0957031 0.387695)"/>
</clipPath>
</defs>
</svg>
